<svg width="25" height="25" viewBox="0 0 25 25" fill="none" xmlns="http://www.w3.org/2000/svg">
<path d="M4.5 4.5H7.5L9.5 2.5H15.5L17.5 4.5H20.5C21.0304 4.5 21.5391 4.71071 21.9142 5.08579C22.2893 5.46086 22.5 5.96957 22.5 6.5V18.5C22.5 19.0304 22.2893 19.5391 21.9142 19.9142C21.5391 20.2893 21.0304 20.5 20.5 20.5H4.5C3.96957 20.5 3.46086 20.2893 3.08579 19.9142C2.71071 19.5391 2.5 19.0304 2.5 18.5V6.5C2.5 5.96957 2.71071 5.46086 3.08579 5.08579C3.46086 4.71071 3.96957 4.5 4.5 4.5V4.5ZM12.5 7.5C11.1739 7.5 9.90215 8.02678 8.96447 8.96447C8.02678 9.90215 7.5 11.1739 7.5 12.5C7.5 13.8261 8.02678 15.0979 8.96447 16.0355C9.90215 16.9732 11.1739 17.5 12.5 17.5C13.8261 17.5 15.0979 16.9732 16.0355 16.0355C16.9732 15.0979 17.5 13.8261 17.5 12.5C17.5 11.1739 16.9732 9.90215 16.0355 8.96447C15.0979 8.02678 13.8261 7.5 12.5 7.5V7.5ZM12.5 9.5C13.2956 9.5 14.0587 9.81607 14.6213 10.3787C15.1839 10.9413 15.5 11.7044 15.5 12.5C15.5 13.2956 15.1839 14.0587 14.6213 14.6213C14.0587 15.1839 13.2956 15.5 12.5 15.5C11.7044 15.5 10.9413 15.1839 10.3787 14.6213C9.81607 14.0587 9.5 13.2956 9.5 12.5C9.5 11.7044 9.81607 10.9413 10.3787 10.3787C10.9413 9.81607 11.7044 9.5 12.5 9.5V9.5Z" fill="black"/>
</svg>
