<svg width="25" height="25" viewBox="0 0 25 25" fill="none" xmlns="http://www.w3.org/2000/svg">
<path d="M18.2188 4.59375C16.5087 4.59375 15.4687 4.92375 14.8687 5.20375C14.0987 4.82375 13.2188 4.59375 12.2188 4.59375C11.2188 4.59375 10.3388 4.82375 9.56875 5.20375C8.96875 4.92375 7.92875 4.59375 6.21875 4.59375C3.21875 4.59375 1.21875 12.5938 1.21875 14.5938C1.21875 15.4237 2.53875 16.1837 4.35875 16.4937C4.99875 18.7337 8.01875 20.4437 11.7188 20.5938V16.3138C11.1288 15.9438 10.2188 15.2738 10.2188 14.5938C10.2188 13.5938 12.2188 13.5938 12.2188 13.5938C12.2188 13.5938 14.2188 13.5938 14.2188 14.5938C14.2188 15.2738 13.3087 15.9438 12.7188 16.3138V20.5938C16.4188 20.4437 19.4388 18.7337 20.0788 16.4937C21.8988 16.1837 23.2188 15.4237 23.2188 14.5938C23.2188 12.5938 21.2188 4.59375 18.2188 4.59375ZM4.36875 14.4637C3.86875 14.3437 3.47875 14.2037 3.21875 14.0938C3.46875 11.3238 5.41875 6.99375 6.26875 6.59375C6.80875 6.59375 7.21875 6.65375 7.58875 6.70375C5.48875 9.01375 4.65875 12.6337 4.36875 14.4637ZM9.21875 12.5938C8.95353 12.5938 8.69918 12.4884 8.51164 12.3009C8.32411 12.1133 8.21875 11.859 8.21875 11.5938C8.21875 11.0537 8.66875 10.5938 9.21875 10.5938C9.48397 10.5938 9.73832 10.6991 9.92586 10.8866C10.1134 11.0742 10.2188 11.3285 10.2188 11.5938C10.2188 12.1538 9.76875 12.5938 9.21875 12.5938ZM15.2188 12.5938C14.9535 12.5938 14.6992 12.4884 14.5116 12.3009C14.3241 12.1133 14.2188 11.859 14.2188 11.5938C14.2188 11.0537 14.6687 10.5938 15.2188 10.5938C15.484 10.5938 15.7383 10.6991 15.9259 10.8866C16.1134 11.0742 16.2188 11.3285 16.2188 11.5938C16.2188 12.1538 15.7688 12.5938 15.2188 12.5938ZM20.0688 14.4637C19.7788 12.6337 18.9487 9.01375 16.8487 6.70375C17.2187 6.65375 17.6288 6.59375 18.1688 6.59375C19.0188 6.99375 20.9688 11.3238 21.2188 14.0938C20.9688 14.2037 20.5788 14.3437 20.0688 14.4637Z" fill="black"/>
</svg>
