<svg width="25" height="25" viewBox="0 0 25 25" fill="none" xmlns="http://www.w3.org/2000/svg">
<path d="M10.2188 8.59375V20.5938C10.2188 21.1438 9.76875 21.5938 9.21875 21.5938H8.21875C7.66875 21.5938 7.21875 21.1438 7.21875 20.5938V13.8638C6.53875 14.3138 5.82875 14.5938 5.21875 14.5938C3.21875 14.5938 2.21875 12.5938 2.21875 11.5938V6.59375C2.21875 5.59375 3.21875 3.59375 5.21875 3.59375C7.21875 3.59375 10.2188 6.59375 10.2188 8.59375ZM16.7188 3.59375C13.6788 3.59375 11.2188 6.05375 11.2188 9.09375C11.2188 12.1337 13.6788 14.5938 16.7188 14.5938C19.7587 14.5938 22.2188 12.1337 22.2188 9.09375C22.2188 6.05375 19.7587 3.59375 16.7188 3.59375ZM14.7188 15.2738V20.5938C14.7188 21.1438 15.1687 21.5938 15.7188 21.5938H17.7188C18.2688 21.5938 18.7188 21.1438 18.7188 20.5938V15.2738C18.0888 15.4838 17.4187 15.5938 16.7188 15.5938C16.0188 15.5938 15.3487 15.4838 14.7188 15.2738Z" fill="black"/>
</svg>
