<svg width="36" height="36" viewBox="0 0 36 36" fill="none" xmlns="http://www.w3.org/2000/svg">
<path d="M21 24.654C24.493 23.417 27 20.094 27 16.177V15.744C27.96 15.693 28.729 14.44 28.729 12.892C28.729 11.344 27.96 10.091 27 10.04V6.177H9V10.04C8.04 10.091 7.271 11.344 7.271 12.892C7.271 14.44 8.041 15.693 9 15.744V16.177C9 20.094 11.507 23.417 15 24.654V26.177H21V24.654Z" fill="#7C543E"/>
<path d="M18 0C10.981 0 7.861 4.684 7.861 8.588C7.861 12.491 9.204 13.574 9.421 12.491C10.201 8.588 12.541 7.39 12.541 7.39C17.221 11.294 16.441 8.171 16.441 8.171C21.12 12.855 18.781 8.171 18.781 8.171C20.341 9.733 25.02 9.733 25.02 9.733C25.02 9.733 25.8 10.931 26.579 12.492C27.359 14.054 28.139 12.492 28.139 8.589C28.139 4.684 24.239 0 18 0V0Z" fill="#0B0200"/>
<path d="M32 5.802L29 4.177L27 5.802C27 5.802 30 13.052 30 16.927C30 20.802 26.001 26.176 26 26.177H10C9.999 26.176 6 20.802 6 16.927C6 13.052 9 5.802 9 5.802L7 4.177L4 5.802C4 5.802 0 12.927 0 16.927C0 20.927 5 35.177 5 35.177H31C31 35.177 36 20.927 36 16.927C36 12.927 32 5.802 32 5.802Z" fill="#4289C1"/>
<path d="M18 30.177C19.657 30.177 21 28.834 21 27.177V25.177H15V27.177C15 28.834 16.343 30.177 18 30.177ZM19.24 1.573C19.282 1.052 19.833 0.846001 20.386 0.865001C20.386 0.865001 25.842 1.176 27.907 2.136C30.522 3.351 32 5.802 32 5.802H27C27 5.802 25.917 4.281 25.062 3.677C24.181 3.054 20.84 2.462 20.343 2.365C19.846 2.268 19.198 2.094 19.24 1.573V1.573ZM16.76 1.573C16.718 1.052 16.167 0.846001 15.614 0.865001C15.614 0.865001 10.158 1.176 8.093 2.136C5.478 3.351 4 5.802 4 5.802H9C9 5.802 10.083 4.281 10.938 3.677C11.819 3.054 15.16 2.462 15.657 2.365C16.153 2.267 16.802 2.094 16.76 1.573V1.573Z" fill="#7C543E"/>
<path d="M14 21.177H22C22 21.177 21 23.177 18 23.177C15 23.177 14 21.177 14 21.177ZM19 18.677H17C16.724 18.677 16.5 18.453 16.5 18.177C16.5 17.901 16.724 17.677 17 17.677H19C19.276 17.677 19.5 17.901 19.5 18.177C19.5 18.453 19.276 18.677 19 18.677Z" fill="#3D2E24"/>
<path d="M14 15.177C13.448 15.177 13 14.729 13 14.177V13.177C13 12.625 13.448 12.177 14 12.177C14.552 12.177 15 12.625 15 13.177V14.177C15 14.729 14.552 15.177 14 15.177ZM22 15.177C21.448 15.177 21 14.729 21 14.177V13.177C21 12.625 21.448 12.177 22 12.177C22.552 12.177 23 12.625 23 13.177V14.177C23 14.729 22.552 15.177 22 15.177Z" fill="black"/>
</svg>
