<svg width="21" height="15" viewBox="0 0 21 15" fill="none" xmlns="http://www.w3.org/2000/svg">
<path d="M20.5 8.5V3.5L15.5 0.5L10.5 3.5L5.5 0.5L0.5 3.5V8.5L10.5 14.5L20.5 8.5ZM7.5 6.5H5.5V8.5H4.5V6.5H2.5V5.5H4.5V3.5H5.5V5.5H7.5V6.5ZM13.5 8.5C12.95 8.5 12.5 8.05 12.5 7.5C12.5 6.95 12.95 6.5 13.5 6.5C14.05 6.5 14.5 6.95 14.5 7.5C14.5 8.05 14.05 8.5 13.5 8.5ZM16.5 6.5C15.95 6.5 15.5 6.05 15.5 5.5C15.5 4.95 15.95 4.5 16.5 4.5C17.05 4.5 17.5 4.95 17.5 5.5C17.5 6.05 17.05 6.5 16.5 6.5Z" fill="black"/>
</svg>
