<svg width="25" height="25" viewBox="0 0 25 25" fill="none" xmlns="http://www.w3.org/2000/svg">
<path d="M12.9688 2.03125C11.6555 2.03125 10.3552 2.28991 9.14192 2.79245C7.92866 3.295 6.82627 4.0316 5.89768 4.96018C4.02232 6.83555 2.96875 9.37909 2.96875 12.0312C2.96875 16.4513 5.83875 20.2012 9.80875 21.5312C10.3088 21.6112 10.4688 21.3013 10.4688 21.0312C10.4688 20.8012 10.4688 20.1712 10.4688 19.3412C7.69875 19.9412 7.10875 18.0012 7.10875 18.0012C6.64875 16.8412 5.99875 16.5312 5.99875 16.5312C5.08875 15.9112 6.06875 15.9312 6.06875 15.9312C7.06875 16.0012 7.59875 16.9613 7.59875 16.9613C8.46875 18.4813 9.93875 18.0313 10.5087 17.7913C10.5987 17.1413 10.8588 16.7013 11.1388 16.4513C8.91875 16.2013 6.58875 15.3412 6.58875 11.5312C6.58875 10.4212 6.96875 9.53125 7.61875 8.82125C7.51875 8.57125 7.16875 7.53125 7.71875 6.18125C7.71875 6.18125 8.55875 5.91125 10.4688 7.20125C11.2588 6.98125 12.1187 6.87125 12.9688 6.87125C13.8188 6.87125 14.6787 6.98125 15.4688 7.20125C17.3787 5.91125 18.2188 6.18125 18.2188 6.18125C18.7688 7.53125 18.4188 8.57125 18.3188 8.82125C18.9688 9.53125 19.3487 10.4212 19.3487 11.5312C19.3487 15.3512 17.0088 16.1912 14.7788 16.4412C15.1388 16.7512 15.4688 17.3613 15.4688 18.2913C15.4688 19.6313 15.4688 20.7113 15.4688 21.0312C15.4688 21.3013 15.6288 21.6213 16.1388 21.5312C20.1088 20.1912 22.9688 16.4513 22.9688 12.0312C22.9688 10.718 22.7101 9.41767 22.2075 8.20442C21.705 6.99116 20.9684 5.88877 20.0398 4.96018C19.1112 4.0316 18.0088 3.295 16.7956 2.79245C15.5823 2.28991 14.282 2.03125 12.9688 2.03125V2.03125Z" fill="black"/>
</svg>
