<svg width="25" height="25" viewBox="0 0 25 25" fill="none" xmlns="http://www.w3.org/2000/svg">
<path d="M8.4581 2.6798H16.8581C20.0581 2.6798 22.6581 5.2798 22.6581 8.4798V16.8798C22.6581 18.4181 22.047 19.8933 20.9593 20.981C19.8716 22.0687 18.3964 22.6798 16.8581 22.6798H8.4581C5.2581 22.6798 2.6581 20.0798 2.6581 16.8798V8.4798C2.6581 6.94155 3.26917 5.46629 4.35688 4.37858C5.44459 3.29087 6.91984 2.6798 8.4581 2.6798V2.6798ZM8.2581 4.6798C7.30332 4.6798 6.38764 5.05909 5.71251 5.73422C5.03738 6.40935 4.6581 7.32502 4.6581 8.2798V17.0798C4.6581 19.0698 6.2681 20.6798 8.2581 20.6798H17.0581C18.0129 20.6798 18.9286 20.3005 19.6037 19.6254C20.2788 18.9503 20.6581 18.0346 20.6581 17.0798V8.2798C20.6581 6.2898 19.0481 4.6798 17.0581 4.6798H8.2581ZM17.9081 6.1798C18.2396 6.1798 18.5576 6.3115 18.792 6.54592C19.0264 6.78034 19.1581 7.09828 19.1581 7.4298C19.1581 7.76132 19.0264 8.07926 18.792 8.31369C18.5576 8.54811 18.2396 8.6798 17.9081 8.6798C17.5766 8.6798 17.2586 8.54811 17.0242 8.31369C16.7898 8.07926 16.6581 7.76132 16.6581 7.4298C16.6581 7.09828 16.7898 6.78034 17.0242 6.54592C17.2586 6.3115 17.5766 6.1798 17.9081 6.1798ZM12.6581 7.6798C13.9842 7.6798 15.2559 8.20659 16.1936 9.14427C17.1313 10.0819 17.6581 11.3537 17.6581 12.6798C17.6581 14.0059 17.1313 15.2777 16.1936 16.2153C15.2559 17.153 13.9842 17.6798 12.6581 17.6798C11.332 17.6798 10.0602 17.153 9.12256 16.2153C8.18488 15.2777 7.6581 14.0059 7.6581 12.6798C7.6581 11.3537 8.18488 10.0819 9.12256 9.14427C10.0602 8.20659 11.332 7.6798 12.6581 7.6798V7.6798ZM12.6581 9.6798C11.8624 9.6798 11.0994 9.99587 10.5368 10.5585C9.97417 11.1211 9.6581 11.8842 9.6581 12.6798C9.6581 13.4755 9.97417 14.2385 10.5368 14.8011C11.0994 15.3637 11.8624 15.6798 12.6581 15.6798C13.4537 15.6798 14.2168 15.3637 14.7794 14.8011C15.342 14.2385 15.6581 13.4755 15.6581 12.6798C15.6581 11.8842 15.342 11.1211 14.7794 10.5585C14.2168 9.99587 13.4537 9.6798 12.6581 9.6798Z" fill="black"/>
</svg>
