<svg width="25" height="25" viewBox="0 0 25 25" fill="none" xmlns="http://www.w3.org/2000/svg">
<path d="M3.90719 3.99117H21.9072V21.9912H3.90719V3.99117ZM8.63719 19.0312C9.03719 19.8812 9.82719 20.5812 11.1772 20.5812C12.6772 20.5812 13.7072 19.7812 13.7072 18.0312V12.2512H12.0072V17.9912C12.0072 18.8512 11.6572 19.0712 11.1072 19.0712C10.5272 19.0712 10.2872 18.6712 10.0172 18.2012L8.63719 19.0312ZM14.6172 18.8512C15.1172 19.8312 16.1272 20.5812 17.7072 20.5812C19.3072 20.5812 20.5072 19.7512 20.5072 18.2212C20.5072 16.8112 19.6972 16.1812 18.2572 15.5612L17.8372 15.3812C17.1072 15.0712 16.7972 14.8612 16.7972 14.3612C16.7972 13.9512 17.1072 13.6312 17.6072 13.6312C18.0872 13.6312 18.4072 13.8412 18.6972 14.3612L20.0072 13.4912C19.4572 12.5312 18.6772 12.1612 17.6072 12.1612C16.0972 12.1612 15.1272 13.1212 15.1272 14.3912C15.1272 15.7712 15.9372 16.4212 17.1572 16.9412L17.5772 17.1212C18.3572 17.4612 18.8172 17.6712 18.8172 18.2512C18.8172 18.7312 18.3672 19.0812 17.6672 19.0812C16.8372 19.0812 16.3572 18.6512 15.9972 18.0512L14.6172 18.8512Z" fill="black"/>
</svg>
