<svg width="25" height="25" viewBox="0 0 25 25" fill="none" xmlns="http://www.w3.org/2000/svg">
<path d="M19.6581 3.6798C20.1885 3.6798 20.6972 3.89052 21.0723 4.26559C21.4474 4.64066 21.6581 5.14937 21.6581 5.6798V19.6798C21.6581 20.2102 21.4474 20.7189 21.0723 21.094C20.6972 21.4691 20.1885 21.6798 19.6581 21.6798H5.6581C5.12766 21.6798 4.61896 21.4691 4.24388 21.094C3.86881 20.7189 3.6581 20.2102 3.6581 19.6798V5.6798C3.6581 5.14937 3.86881 4.64066 4.24388 4.26559C4.61896 3.89052 5.12766 3.6798 5.6581 3.6798H19.6581ZM19.1581 19.1798V13.8798C19.1581 13.0152 18.8146 12.186 18.2033 11.5746C17.5919 10.9633 16.7627 10.6198 15.8981 10.6198C15.0481 10.6198 14.0581 11.1398 13.5781 11.9198V10.8098H10.7881V19.1798H13.5781V14.2498C13.5781 13.4798 14.1981 12.8498 14.9681 12.8498C15.3394 12.8498 15.6955 12.9973 15.958 13.2599C16.2206 13.5224 16.3681 13.8785 16.3681 14.2498V19.1798H19.1581ZM7.5381 9.2398C7.98366 9.2398 8.41097 9.0628 8.72604 8.74774C9.0411 8.43268 9.2181 8.00537 9.2181 7.5598C9.2181 6.6298 8.4681 5.8698 7.5381 5.8698C7.08988 5.8698 6.66002 6.04785 6.34309 6.36479C6.02615 6.68173 5.8481 7.11159 5.8481 7.5598C5.8481 8.4898 6.6081 9.2398 7.5381 9.2398ZM8.9281 19.1798V10.8098H6.1581V19.1798H8.9281Z" fill="black"/>
</svg>
