<svg width="20" height="19" viewBox="0 0 20 19" fill="none" xmlns="http://www.w3.org/2000/svg">
<path d="M19.5 0.5V13C19.5 13.9283 19.1313 14.8185 18.4749 15.4749C17.8185 16.1313 16.9283 16.5 16 16.5C15.0717 16.5 14.1815 16.1313 13.5251 15.4749C12.8687 14.8185 12.5 13.9283 12.5 13C12.5 12.0717 12.8687 11.1815 13.5251 10.5251C14.1815 9.86875 15.0717 9.5 16 9.5C16.54 9.5 17.05 9.62 17.5 9.84V3.97L7.5 6.1V15C7.5 15.9283 7.13125 16.8185 6.47487 17.4749C5.8185 18.1313 4.92826 18.5 4 18.5C3.07174 18.5 2.1815 18.1313 1.52513 17.4749C0.868749 16.8185 0.5 15.9283 0.5 15C0.5 14.0717 0.868749 13.1815 1.52513 12.5251C2.1815 11.8687 3.07174 11.5 4 11.5C4.54 11.5 5.05 11.62 5.5 11.84V3.5L19.5 0.5Z" fill="black"/>
</svg>
