<svg width="25" height="25" viewBox="0 0 25 25" fill="none" xmlns="http://www.w3.org/2000/svg">
<path d="M12.9072 2.99117C14.2204 2.99117 15.5208 3.24982 16.734 3.75237C17.9473 4.25492 19.0497 4.99151 19.9783 5.9201C20.9068 6.84868 21.6434 7.95107 22.146 9.16433C22.6485 10.3776 22.9072 11.6779 22.9072 12.9912C22.9072 15.6433 21.8536 18.1869 19.9783 20.0622C18.1029 21.9376 15.5594 22.9912 12.9072 22.9912C11.594 22.9912 10.2936 22.7325 9.08036 22.23C7.8671 21.7274 6.76471 20.9908 5.83612 20.0622C3.96076 18.1869 2.90719 15.6433 2.90719 12.9912C2.90719 10.339 3.96076 7.79546 5.83612 5.9201C7.71149 4.04473 10.255 2.99117 12.9072 2.99117V2.99117ZM10.9072 16.3212C11.0672 16.8612 11.0472 17.3612 10.9072 17.8212C10.9072 17.8712 10.8672 17.9212 10.8472 17.9912C10.8272 17.9912 10.8072 18.0612 10.7772 18.1112C10.6672 18.3512 10.5072 18.5812 10.3172 18.7812C9.73719 19.4212 8.90719 19.6612 8.57719 19.4612C8.19719 19.2412 8.40719 18.3412 9.06719 17.6312C9.78719 16.8712 10.8272 16.3712 10.8272 16.3712L10.9072 16.3212ZM19.1772 7.27117C18.7272 5.49117 15.7772 4.91116 12.9972 5.90117C11.3372 6.49116 9.53719 7.41117 8.24719 8.62117C6.71719 10.0612 6.46719 11.3112 6.56719 11.8312C6.90719 13.6712 9.44719 14.8812 10.4872 15.7712V15.7812C10.1872 15.9312 7.94719 17.0612 7.40719 18.2212C6.86719 19.4412 7.50719 20.3212 7.90719 20.4412C9.24719 20.8012 10.5972 20.1512 11.3172 19.0612C12.0172 18.0212 11.9672 16.6712 11.6572 15.9912C12.0772 15.8912 12.5672 15.8412 13.1872 15.9112C14.9472 16.1212 15.2872 17.2112 15.2172 17.6712C15.1572 18.1312 14.7872 18.3812 14.6672 18.4612C14.5472 18.5312 14.5072 18.5612 14.5172 18.6212C14.5272 18.7012 14.5872 18.7012 14.6872 18.6812C14.8372 18.6512 15.6172 18.3112 15.6472 17.4612C15.6872 16.3812 14.6572 15.1812 12.8372 15.2112C12.0872 15.2312 11.6172 15.3012 11.2772 15.4312L11.1972 15.3412C10.0672 14.1412 7.98719 13.2912 8.07719 11.6712C8.10719 11.0812 8.30719 9.54117 12.0772 7.66117C15.1572 6.12117 17.6272 6.54117 18.0572 7.49117C18.6672 8.82117 16.7372 11.3112 13.5372 11.6712C12.3172 11.8112 11.6672 11.3312 11.5072 11.1612C11.3372 10.9912 11.3172 10.9612 11.2572 10.9912C11.1472 11.0612 11.2172 11.2212 11.2572 11.3212C11.3472 11.5712 11.7472 11.9912 12.4072 12.2312C12.9972 12.4212 14.4372 12.5312 16.1672 11.8612C18.1072 11.1112 19.6272 9.02117 19.1772 7.27117Z" fill="black"/>
</svg>
