<svg width="25" height="25" viewBox="0 0 25 25" fill="none" xmlns="http://www.w3.org/2000/svg">
<path d="M4.21875 15.5938H6.21875C6.74918 15.5938 7.25789 15.8045 7.63296 16.1795C8.00804 16.5546 8.21875 17.0633 8.21875 17.5938V19.5938H9.21875V17.5938C9.21875 17.0633 9.42946 16.5546 9.80454 16.1795C10.1796 15.8045 10.6883 15.5937 11.2188 15.5938H13.2188C13.7492 15.5938 14.2579 15.8045 14.633 16.1795C15.008 16.5546 15.2188 17.0633 15.2188 17.5938V19.5938H16.2188V17.5938C16.2188 17.0633 16.4295 16.5546 16.8045 16.1795C17.1796 15.8045 17.6883 15.5937 18.2188 15.5938H20.2188C20.7492 15.5938 21.2579 15.8045 21.633 16.1795C22.008 16.5546 22.2188 17.0633 22.2188 17.5938V19.5938H23.2188V22.5938H1.21875V19.5938H2.21875V17.5938C2.21875 17.0633 2.42946 16.5546 2.80454 16.1795C3.17961 15.8045 3.68832 15.5937 4.21875 15.5938V15.5938ZM11.2188 7.59375L15.2188 10.5938L11.2188 13.5938V7.59375ZM4.21875 2.59375H20.2188C20.7492 2.59375 21.2579 2.80446 21.633 3.17954C22.008 3.55461 22.2188 4.06332 22.2188 4.59375V14.1337C21.6288 13.7837 20.9488 13.5938 20.2188 13.5938V4.59375H4.21875V13.5938C3.48875 13.5938 2.80875 13.7837 2.21875 14.1337V4.59375C2.21875 4.06332 2.42946 3.55461 2.80454 3.17954C3.17961 2.80446 3.68832 2.59375 4.21875 2.59375V2.59375Z" fill="black"/>
</svg>
