<svg width="25" height="25" viewBox="0 0 25 25" fill="none" xmlns="http://www.w3.org/2000/svg">
<path d="M23.1181 6.6798C22.3481 7.0298 21.5181 7.2598 20.6581 7.3698C21.5381 6.8398 22.2181 5.9998 22.5381 4.9898C21.7081 5.4898 20.7881 5.8398 19.8181 6.0398C19.0281 5.1798 17.9181 4.6798 16.6581 4.6798C14.3081 4.6798 12.3881 6.5998 12.3881 8.9698C12.3881 9.3098 12.4281 9.6398 12.4981 9.9498C8.9381 9.7698 5.7681 8.0598 3.6581 5.4698C3.2881 6.0998 3.0781 6.8398 3.0781 7.6198C3.0781 9.1098 3.8281 10.4298 4.9881 11.1798C4.2781 11.1798 3.6181 10.9798 3.0381 10.6798C3.0381 10.6798 3.0381 10.6798 3.0381 10.7098C3.0381 12.7898 4.5181 14.5298 6.4781 14.9198C6.1181 15.0198 5.7381 15.0698 5.3481 15.0698C5.0781 15.0698 4.8081 15.0398 4.5481 14.9898C5.0881 16.6798 6.6581 17.9398 8.5481 17.9698C7.0881 19.1298 5.2381 19.8098 3.2181 19.8098C2.8781 19.8098 2.5381 19.7898 2.1981 19.7498C4.0981 20.9698 6.3581 21.6798 8.7781 21.6798C16.6581 21.6798 20.9881 15.1398 20.9881 9.4698C20.9881 9.2798 20.9881 9.0998 20.9781 8.9098C21.8181 8.3098 22.5381 7.5498 23.1181 6.6798Z" fill="black"/>
</svg>
